<svg xmlns="http://www.w3.org/2000/svg" width="1024" height="1024" version="1.2"><path fill-rule="evenodd" d="M1024 0v1024H0V0z" style="fill:#fff"/><path d="m422.42 635.73 8.5 8.96c43.02 33.63 106.73 50.12 159.89 34.21 57.24-17.13 97.05-71.19 140.91-107.54 4.13-3.43 8.91-6.95 14.48-7.48 10.79-1.02 25.77 5.58 17.89 17.9-10.15 15.87-33.38 40.59-46.81 54.96-67.58 72.27-146.72 129.04-251.18 101.48-74.34-19.62-152.69-93.95-201.85-151.37-1.16-1.36-7.05-8.13-6.47-8.98 9.93-6.86 19.6-13.66 30.57-18.83 48.19-22.73 88.2-25.63 131.97 6.45 36.24 26.56 59.11 48.61 104.1 62.52 15.63 4.83 56.75 9.21 64.48 22.33 11.57 19.68-22.29 23.77-34.24 24.34-47.25 2.26-90.76-19.69-132.24-38.95zm253.43-357.21c5.64 47.6-16.62 95.16-59.19 117.91-12.43 6.64-25.19 9.77-38.63 13.46l.14 16.2c32.48 8.77 50.39 41.62 41.52 74.15-7.99 29.35-54.63 68.67-79.22 86.41-3.51 2.53-26.1 18.25-28.25 17.63-29.97-18.27-59.99-40.98-83.33-67.32-23.78-26.83-37.22-60.02-11.43-91.28 27.46-33.31 73.38-24.87 95.25 9.44 12.04-17.74 30.52-29.73 52.28-31.03-.13-31.63 2.11-64.43 19.65-91.61 19.94-30.9 55.41-48.93 91.21-53.96zM558.11 407.23c-6.27-1.45-12.77-1.23-19.16-2.28-44.68-7.4-79.65-41.06-81.61-87.51 51.73-2.58 99.3 36.98 100.77 89.79zm42.91 256.43c2.79-8.37.68-17.64-5.91-23.58l.36-1.36c11.11-9.17 22.62-17.98 33.5-27.42 17.79-15.44 34.64-33.35 52.4-48.38 14.19-12.02 30.96-20.31 46.35-4.52-26.33 25.81-51.43 53.25-80.33 76.3-5.11 4.08-42.85 31.75-46.37 28.96zm74.49-119.38c.69.63 3.39 4.29 3.27 5-29.56 29.09-59.15 58.36-92.71 82.92-10.78-3.48-21.54-7.29-32.94-8.46 14.68-12.78 30.17-24.65 44.91-37.39 11.42-9.86 22.29-21.53 33.9-30.96 10.55-8.58 30.68-22.96 43.57-11.11z" style="fill:#000"/></svg>