<svg xmlns="http://www.w3.org/2000/svg" width="1024" height="1024" version="1.2"><path fill-rule="evenodd" d="M1024 0v1024H0V0z" style="fill:#fff"/><path fill-rule="evenodd" d="m720.9 463.35-36.21.01c-5 0-5-1.1-5-7.44 0-12.74.14-78.73.14-79.96 0-4.16.11-4.27-5.58.27-8.55 6.8-17.16 13.79-25.69 20.64-28.48 22.89-59.23 46.15-86.63 70.01-4.65 4.06-10.1 8.2-7.33 13.86 1.98 4.07 9.64 10.63 12.88 13.31 33.58 27.73 81.07 65.82 81.83 66.48l1.74 1.52c19.64 21.83 17.69 54.86.75 75.61q-.41.5-.85.99t-.89.96q-.46.46-.94.91-.48.45-.97.88c-45.44 39.1-74.73 61.62-121.41 100l-.16.11-.18.1q-.09.05-.19.08l-.19.06c-2.09.47-3.91.25-5.04-1.61l-.23-.84-.61-120.85c0-1.63-1.86-3-2.2-3.24l-.12-.09a16693.8 16693.8 0 0 0-131.41-108.27l-.38-.4-.35-.43q-.17-.22-.32-.45l-.29-.47q-.25-.49-.44-1-.18-.51-.3-1.05-.12-.53-.18-1.07-.05-.54-.03-1.09v-43.31c0-2.39.78-6.19 5.78-5.78.95.08 2.8.88 6.33 3.86l.1.08 168.3 135.29.22.21c1.6 1.6 2.12 4.07 2.35 6.34 1.42 13.97-1.28 30.28-.01 44.34.6 6.73 6.83.47 9.83-1.81a749.74 749.74 0 0 0 30.72-24.67c5.65-4.81 11.59-9.43 10.31-17.84-.92-5.96-14.42-15.81-19.37-19.91-21.25-17.6-43.44-34.13-64.95-51.4q-94.81-76.12-188.91-153.12l-.13-.09-.14-.09-.14-.07-.16-.05q-.38-.12-.79-.06-.4.07-.73.31-.32.25-.5.61-.18.37-.18.77.04 3.27.05 6.52c0 69.24 1.2 138.97-.55 207.93v.16c0 6.54 1.38 6.74 5.32 10.21 7.32 6.43 16.02 12.42 23.65 18.66 32.17 26.27 64.59 52.29 96.89 78.36l.29.27.29.28.27.29.27.3c1.74 1.85 2.48 3.62 2.48 5.85 0 7-.12 21.8-.12 28.6 0 11.46-9.59 10-9.97 9.97-3.46-.17-9.39-5.64-10.93-6.64l-.08-.06s-13.79-11.31-22.96-18.53c-42.78-33.73-84.94-68.26-127.93-101.73-2.43-2.02-2.45-5.3-2.79-8.19l-.01-.19V289.81c-.03-4.27 2.26-7.18 6.76-6.75 2.38.22 5.38 3.03 7.4 4.5 17.77 12.93 35.83 28.08 53.09 41.82 40.24 32.05 79.73 65.05 119.89 97.18 8.84 7.07 17.74 14.19 26.76 20.95q.2.15.43.24.23.09.48.1.25.02.49-.04.24-.05.46-.18l.53-.33.53-.35.52-.36.5-.38c12.2-9.21 24.29-20.46 36.29-30.2 54.67-44.36 157.56-126.05 159.37-127.43 2.93-2.25 6.35-5.25 9.03-5.5 4.83-.45 8.25 2.2 8.25 8.24v164.39c0 7.52-.03 7.64-6.1 7.64z" style="fill:#000"/></svg>