<svg xmlns="http://www.w3.org/2000/svg" width="1024" height="1024" version="1.2"><path fill-rule="evenodd" d="M1024 0v1024H0V0z" style="fill:#fff"/><path fill-rule="evenodd" d="M335.04 458.94 330.97 476c-21.77 125.14 69.76 230.73 197.16 222.95 41.05-2.51 81.8-26.22 90.41-68.64 15.72-77.47 22.83-158.13 38.72-235.7 2.65-15.2 22.23-20.31 26.38-3.05 8.24 54.06 13.96 108.45 21.12 162.66l18.41-84.4c3.27-11.28 17.48-13.06 23.01-2.52 5.66 10.77 7.24 28.93 12.28 40.74 5.33 12.49 17.54 9.14 28.33 10.36 12.56 1.43 13.62 19.5 2.38 23.16-12.11 3.95-38.34-.55-46.82-10.96l-3.91-6.46-23.8 111.27c-5.17 11.57-21.64 13.15-24.73-.77-8.38-51.32-14.2-102.93-20.26-154.57-.13-1.07-.58-2.2-1.43-1.06a749.08 749.08 0 0 1-5.94 43.85c-6.26 38.82-11.92 83.12-20.92 120.94-19.52 82.03-121.56 94.47-190.23 74.15-188.85-55.88-203.6-327.84-24.13-404.58 73.8-31.55 172.47-18.87 227.6 42.04-8.71 6.71-16.4 14.22-20.4 24.73-17.5 82.72-27.28 167.33-43.35 250.41-7.05 22.21-34.15 31.1-55.03 34.53-76.93 12.62-154.79-33.53-186.33-103.42-14.62-32.39-19-67.48-14.44-102.71zm229.74-6.92c-39.2-39.2-106.82-24.86-126.38 26.8-21.94 57.93 28.92 116.54 89.25 102.87 58.49-13.26 79.65-87.14 37.13-129.67zm-54.6 33.01a21.63 21.63 0 1 1 0 43.25 21.63 21.63 0 0 1 0-43.25z" style="fill:#000"/></svg>