<svg xmlns="http://www.w3.org/2000/svg" width="1024" height="1024" version="1.2"><path fill-rule="evenodd" d="M1024 0v1024H0V0z" style="fill:#fff"/><path fill-rule="evenodd" d="m323 625.6.26-228.94L497.32 508.9l.13 228.8-39.81-25.44-.07-181.36-27.82-17.78-.23 57.65-38.84-25.07-.24-58.33-27.7-17.67-.3 181.54M526.76 738l.08-91.75 39.71-25.54v44.33l95.28-61.63.04-79.49-135.18 87.46V509.02l39.8-25.7.13 54.38 95.27-61.42.08-54.37 39.16-24.89.3 228.44zM346.62 376.15 512.22 286l165.36 90.18-165.49 106.76zm165.62-57.2-92.15 56.95 92.11 59.88 91.94-59.92zm-.15 164h-.01z" style="fill:#000"/></svg>